<?xml version="1.0" encoding="UTF-8"?>
<svg version="1.1" xmlns="http://www.w3.org/2000/svg" width="96" height="96">
<path d="M0 0 C0.886875 -0.00257813 1.77375 -0.00515625 2.6875 -0.0078125 C3.615625 -0.00007812 4.54375 0.00765625 5.5 0.015625 C6.8921875 0.00402344 6.8921875 0.00402344 8.3125 -0.0078125 C9.6428125 -0.00394531 9.6428125 -0.00394531 11 0 C11.8146875 0.00225586 12.629375 0.00451172 13.46875 0.00683594 C15.5 0.265625 15.5 0.265625 17.5 2.265625 C17.72705078 5.24658203 17.72705078 5.24658203 17.6953125 9.0234375 C17.6924826 9.68648895 17.68965271 10.34954041 17.68673706 11.03268433 C17.67553435 13.15218083 17.65043051 15.27125604 17.625 17.390625 C17.61497028 18.82681682 17.60584441 20.26301525 17.59765625 21.69921875 C17.57729539 25.22164738 17.5381494 28.74316417 17.5 32.265625 C23.44 32.265625 29.38 32.265625 35.5 32.265625 C29.97349666 39.00642925 23.80550441 45.0727379 17.625 51.203125 C16.54403726 52.27906227 15.46330617 53.35523231 14.3828125 54.43164062 C11.75787359 57.04565792 9.12981372 59.65651096 6.5 62.265625 C2.22113402 60.61195385 -0.6400635 57.39582926 -3.796875 54.19921875 C-4.68732513 53.30808128 -4.68732513 53.30808128 -5.59576416 52.39894104 C-6.84535316 51.14633783 -8.09251774 49.89131193 -9.33740234 48.6340332 C-11.25173412 46.70137428 -13.17401858 44.77690787 -15.09765625 42.85351562 C-16.3103702 41.63588894 -17.52262608 40.41780582 -18.734375 39.19921875 C-19.31241882 38.6200621 -19.89046265 38.04090546 -20.48602295 37.44419861 C-24.5 33.38168824 -24.5 33.38168824 -24.5 32.265625 C-18.56 32.265625 -12.62 32.265625 -6.5 32.265625 C-6.52320312 30.12320313 -6.54640625 27.98078125 -6.5703125 25.7734375 C-6.58590373 23.70166618 -6.59805145 21.62990137 -6.60986328 19.55810547 C-6.61992963 18.11666953 -6.6335838 16.67525405 -6.65087891 15.23388672 C-6.67510012 13.16368566 -6.68647641 11.09375424 -6.6953125 9.0234375 C-6.70578613 7.7770752 -6.71625977 6.53071289 -6.72705078 5.24658203 C-6.35566431 0.37063708 -4.40242463 0.01219026 0 0 Z M1.5 8.265625 C1.5 18.825625 1.5 29.385625 1.5 40.265625 C-0.15 40.265625 -1.8 40.265625 -3.5 40.265625 C-2.5919838 41.39761853 -1.67316174 42.52094863 -0.75 43.640625 C-0.23953125 44.26710937 0.2709375 44.89359375 0.796875 45.5390625 C2.58199481 47.34874818 4.17949644 48.26679955 6.5 49.265625 C7.83631236 47.9561582 9.16897925 46.64297015 10.5 45.328125 C11.2425 44.59722656 11.985 43.86632813 12.75 43.11328125 C14.61460992 41.56876347 14.61460992 41.56876347 14.5 40.265625 C12.85 40.265625 11.2 40.265625 9.5 40.265625 C9.5 29.705625 9.5 19.145625 9.5 8.265625 C6.86 8.265625 4.22 8.265625 1.5 8.265625 Z " fill="#000000" transform="translate(42.5,7.734375)"/>
<path d="M0 0 C26.4 0 52.8 0 80 0 C80 2.64 80 5.28 80 8 C53.6 8 27.2 8 0 8 C0 5.36 0 2.72 0 0 Z " fill="#000000" transform="translate(8,80)"/>
</svg>
